<svg version="1.0" xmlns="http://www.w3.org/2000/svg" width="688" height="688" viewBox="0 0 516 516"><path d="M242.5 61.1c-8.2 14.4-16.2 28.2-17.6 30.8-1.4 2.5-8.6 14.9-15.9 27.6-7.3 12.6-14.1 24.3-15 26-4.7 8.3-55.6 96.8-78.5 136.5-4 6.9-13.6 23.7-21.5 37.5-7.9 13.7-16.2 28.1-18.5 32-2.3 3.8-4.5 7.7-4.8 8.5-.4.8-1.6 3-2.8 4.9-2.9 4.8-39.7 68.6-42.8 74.3-1.4 2.6-7.4 13.1-13.4 23.3C5.8 472.7 1 481.3 1 481.5c0 .3 31.4.2 69.8-.1 38.3-.4 77.2-.7 86.4-.8 13.5-.1 17-.4 18.1-1.6.8-.8 9.4-15.9 19.2-33.5 9.8-17.6 18.6-33.2 19.6-34.7 1.1-1.5 1.9-2.9 1.9-3.2 0-.2 4.7-8.7 10.3-18.8 5.7-10 11.9-21 13.7-24.3 1.8-3.3 5.2-9.4 7.5-13.5 2.4-4.1 5.3-9.3 6.5-11.5 1.2-2.2 8.5-15.3 16.3-29 7.7-13.8 15.1-27 16.5-29.5 10.9-19.6 23.5-41.6 24.1-42.3.6-.6 24.2 38.8 46 76.7 2 3.5 14 24.1 42.9 73.6 3.1 5.2 7.4 12.6 9.7 16.5 7.2 12.2 9.6 16.5 9.3 16.6-.7.2-49.7.8-105.2 1.3-32.9.2-60.2.8-60.6 1.3-1 1-18.3 42.4-21.6 51.5l-1.3 3.8 51.2-.5c28.2-.2 84.3-.7 124.7-1.1 40.4-.3 81.7-.7 91.7-.8l18.2-.1-2.1-3.5c-1.1-1.9-3.1-5.3-4.3-7.5-1.3-2.2-7.3-12.5-13.4-22.9-6.1-10.4-11.1-19.1-11.1-19.3 0-.2-1.4-2.4-3-4.8s-3-4.6-3-4.9c0-.4-2-3.9-4.4-7.9-2.4-3.9-12.3-20.9-22.1-37.7-9.8-16.8-20.1-34.3-22.8-39-2.8-4.7-6-10.3-7.2-12.5-2-3.6-27.2-46.8-29.5-50.5-2.1-3.5-7.5-12.7-8.6-14.6-.9-1.6-10-17.4-19.4-33.4-.5-.8-5.5-9.4-11.2-19-5.7-9.6-10.8-18.4-11.4-19.5-2-3.7-29.7-51-30.9-52.8-1.3-1.9-3.6 1.7-21 33.3-3.2 5.8-7.2 13-9 16-1.8 3-4.6 8-6.2 11-1.7 3-4 7.2-5.2 9.2-2.7 4.8-3.5 6.2-17 30.3-6.2 11-11.6 20.7-12.1 21.5-.5.8-2.9 5.1-5.3 9.5-2.5 4.4-5.3 9.6-6.4 11.5-1.1 1.9-3.2 5.7-4.7 8.5-3.2 5.7-4.8 8.5-13.9 24.5-3.5 6.3-7.7 13.7-9.2 16.5-1.6 2.7-13.2 23.4-25.8 46-12.6 22.5-25.3 45.1-28.1 50.2l-5.1 9.2-21.3.3c-11.8.2-21.8 0-22.4-.3-.6-.4 5.8-12.4 14.5-27.5 8.5-14.8 16.5-28.7 17.7-30.9 1.2-2.2 4.6-8.1 7.5-13 2.9-5 6.6-11.3 8.2-14.1 2.8-5.1 18.7-32.6 20.4-35.4.4-.8 11.8-20.6 25.2-44 13.4-23.4 30.6-53.2 38.1-66.3 7.5-13.1 14.5-25.3 15.5-27 1-1.8 6.9-12 13.1-22.7 6.2-10.7 12.4-21.5 13.8-24 1.4-2.5 3.6-6.2 4.9-8.2 1.2-2.1 2.3-4 2.3-4.2 0-.2 2.3-4.3 5.1-9.2 4-6.6 5-9.1 4.2-10.3-.5-.9-2.2-3.9-3.7-6.6-1.6-2.8-3.2-5.5-3.6-6-.4-.6-2.1-3.3-3.7-6.1C270.1 54.7 258.4 35 258 35c-.3 0-7.2 11.8-15.5 26.1z"/></svg>