<?xml version="1.0" standalone="no"?>
<!DOCTYPE svg PUBLIC "-//W3C//DTD SVG 20010904//EN"
 "http://www.w3.org/TR/2001/REC-SVG-20010904/DTD/svg10.dtd">
<svg version="1.0" xmlns="http://www.w3.org/2000/svg"
 width="250.000000pt" height="250.000000pt" viewBox="0 0 250.000000 250.000000"
 preserveAspectRatio="xMidYMid meet">
<metadata>
Created by potrace 1.11, written by Peter Selinger 2001-2013
</metadata>
<g transform="translate(0.000000,250.000000) scale(0.100000,-0.100000)"
fill="#000000" stroke="none">
<path d="M0 1250 l0 -1250 1250 0 1250 0 0 1250 0 1250 -1250 0 -1250 0 0
-1250z m1442 687 c136 -32 229 -96 272 -187 17 -37 21 -64 21 -155 0 -100 -2
-115 -28 -167 -32 -65 -84 -113 -139 -130 -21 -6 -38 -14 -38 -17 0 -4 20 -13
45 -20 138 -41 218 -181 202 -355 -14 -144 -87 -250 -217 -314 -108 -53 -183
-62 -531 -62 l-309 0 0 716 0 716 328 -5 c248 -3 343 -8 394 -20z"/>
<path d="M1020 1549 l0 -162 143 5 c115 3 150 8 181 24 61 30 81 64 81 140 0
58 -3 66 -31 95 -42 41 -118 59 -261 59 l-113 0 0 -161z"/>
<path d="M1020 965 l0 -187 153 4 c139 3 156 6 196 28 66 37 85 69 89 148 3
57 0 72 -20 102 -13 20 -44 46 -73 60 -45 22 -65 25 -197 28 l-148 4 0 -187z"/>
</g>
</svg>
